<svg width="20" height="18" viewBox="0 0 20 18" fill="none" xmlns="http://www.w3.org/2000/svg">
<g id="Frame 150">
<g id="_x32_0_2_">
<path id="Vector" d="M6.18502 9.91406H4.19858L2 15.2651H18L15.8038 9.91406H13.8174" stroke="white" stroke-miterlimit="10" stroke-linecap="square"/>
<g id="Group">
<path id="Vector_2" d="M13.974 5.25077C13.974 5.87321 13.8318 6.46188 13.5762 6.98781C12.9326 8.31472 9.99873 12.4185 9.99873 12.4185C9.99873 12.4185 7.13719 8.36056 6.47183 7.08915C6.18495 6.53908 6.02344 5.91422 6.02344 5.25077C6.02344 3.05534 7.80255 1.27246 9.99873 1.27246C12.1949 1.27487 13.974 3.05534 13.974 5.25077Z" stroke="white" stroke-miterlimit="10" stroke-linecap="square"/>
<path id="Vector_3" d="M10.0011 6.87212C10.8958 6.87212 11.6211 6.14627 11.6211 5.25088C11.6211 4.35549 10.8958 3.62964 10.0011 3.62964C9.10641 3.62964 8.3811 4.35549 8.3811 5.25088C8.3811 6.14627 9.10641 6.87212 10.0011 6.87212Z" stroke="white" stroke-miterlimit="10" stroke-linecap="square"/>
</g>
<path id="Vector_4" d="M2 16.6501H18" stroke="white" stroke-miterlimit="10" stroke-linecap="square"/>
</g>
</g>
</svg>
