<svg width="18" height="17" viewBox="0 0 18 17" fill="none" xmlns="http://www.w3.org/2000/svg">
<g id="_x36__1_">
<g id="Group">
<path id="Vector" d="M3.54102 9.09741L4.4564 10.0117" stroke="#A7A7A7" stroke-miterlimit="10" stroke-linecap="square"/>
<path id="Vector_2" d="M4.4564 9.09741L3.54102 10.0117" stroke="#A7A7A7" stroke-miterlimit="10" stroke-linecap="square"/>
</g>
<g id="Group_2">
<path id="Vector_3" d="M6.82031 9.09741L7.7357 10.0117" stroke="#A7A7A7" stroke-miterlimit="10" stroke-linecap="square"/>
<path id="Vector_4" d="M7.7357 9.09741L6.82031 10.0117" stroke="#A7A7A7" stroke-miterlimit="10" stroke-linecap="square"/>
</g>
<g id="Group_3">
<path id="Vector_5" d="M10.0996 9.09741L11.015 10.0117" stroke="#A7A7A7" stroke-miterlimit="10" stroke-linecap="square"/>
<path id="Vector_6" d="M11.015 9.09741L10.0996 10.0117" stroke="#A7A7A7" stroke-miterlimit="10" stroke-linecap="square"/>
</g>
<path id="Vector_7" d="M15.8026 2.31079H17V15.8843H1V2.31079H3.01282" stroke="#A7A7A7" stroke-miterlimit="10" stroke-linecap="square"/>
<path id="Vector_8" d="M5.62037 0.884277H3.56396V3.71934H5.62037V0.884277Z" stroke="#A7A7A7" stroke-miterlimit="10" stroke-linecap="square"/>
<path id="Vector_9" d="M14.4363 0.884277H12.3799V3.71934H14.4363V0.884277Z" stroke="#A7A7A7" stroke-miterlimit="10" stroke-linecap="square"/>
<path id="Vector_10" d="M1 5.54297H15.441" stroke="#A7A7A7" stroke-miterlimit="10" stroke-linecap="square"/>
<path id="Vector_11" d="M3.40039 7.49707H4.59783" stroke="#A7A7A7" stroke-miterlimit="10" stroke-linecap="square"/>
<path id="Vector_12" d="M6.67969 7.49707H7.87712" stroke="#A7A7A7" stroke-miterlimit="10" stroke-linecap="square"/>
<path id="Vector_13" d="M9.95898 7.49707H11.1564" stroke="#A7A7A7" stroke-miterlimit="10" stroke-linecap="square"/>
<path id="Vector_14" d="M13.2412 7.49707H14.4361" stroke="#A7A7A7" stroke-miterlimit="10" stroke-linecap="square"/>
<path id="Vector_15" d="M13.2412 9.65063H14.4361" stroke="#A7A7A7" stroke-miterlimit="10" stroke-linecap="square"/>
<path id="Vector_16" d="M3.40039 11.8071H4.59783" stroke="#A7A7A7" stroke-miterlimit="10" stroke-linecap="square"/>
<path id="Vector_17" d="M6.67969 11.8071H7.87712" stroke="#A7A7A7" stroke-miterlimit="10" stroke-linecap="square"/>
<path id="Vector_18" d="M9.95898 11.8071H11.1564" stroke="#A7A7A7" stroke-miterlimit="10" stroke-linecap="square"/>
<path id="Vector_19" d="M13.2412 11.8071H14.4361" stroke="#A7A7A7" stroke-miterlimit="10" stroke-linecap="square"/>
<path id="Vector_20" d="M3.40039 13.9636H4.59783" stroke="#A7A7A7" stroke-miterlimit="10" stroke-linecap="square"/>
<path id="Vector_21" d="M6.67969 13.9636H7.87712" stroke="#A7A7A7" stroke-miterlimit="10" stroke-linecap="square"/>
<path id="Vector_22" d="M9.95898 13.9636H11.1564" stroke="#A7A7A7" stroke-miterlimit="10" stroke-linecap="square"/>
<path id="Vector_23" d="M13.2412 13.9636H14.4361" stroke="#A7A7A7" stroke-miterlimit="10" stroke-linecap="square"/>
<path id="Vector_24" d="M6.9873 2.31079H12.3796" stroke="#A7A7A7" stroke-miterlimit="10" stroke-linecap="square"/>
</g>
</svg>
