<svg width="60" height="61" viewBox="0 0 60 61" fill="none" xmlns="http://www.w3.org/2000/svg">
<g id="Group 35">
<rect id="Rectangle 41" y="0.5" width="60" height="60" fill="#FF5E41"/>
<g id="Group">
<path id="Vector" d="M14.0581 30.4998C13.5944 29.3839 13.3335 28.1593 13.3335 26.8766C13.3335 21.6738 17.5509 17.4564 22.7538 17.4564C27.9567 17.4564 32.1741 21.6738 32.1741 26.8766C32.1741 32.0795 27.9567 36.2969 22.7538 36.2969C19.8407 36.2969 17.2393 34.9708 15.5074 32.8984" stroke="white" stroke-width="2" stroke-miterlimit="10" stroke-linejoin="round"/>
<path id="Vector_2" d="M22.7539 27.6012V20.3549" stroke="white" stroke-width="2" stroke-miterlimit="10" stroke-linejoin="round"/>
<path id="Vector_3" d="M22.7539 17.4565V13.8333" stroke="white" stroke-width="2" stroke-miterlimit="10" stroke-linejoin="round"/>
<path id="Vector_4" d="M24.9279 13.8333H20.5801" stroke="white" stroke-width="2" stroke-miterlimit="10" stroke-linejoin="round"/>
<path id="Vector_5" d="M28.5508 16.0073L27.1016 18.9058" stroke="white" stroke-width="2" stroke-miterlimit="10" stroke-linejoin="round"/>
<path id="Vector_6" d="M16.957 16.0073L18.4063 18.9058" stroke="white" stroke-width="2" stroke-miterlimit="10" stroke-linejoin="round"/>
<path id="Vector_7" d="M19.8556 32.674H15.5078V37.0218" stroke="white" stroke-width="2" stroke-miterlimit="10" stroke-linejoin="round"/>
<path id="Vector_8" d="M23.4786 43.5431H22.0293" stroke="white" stroke-width="2" stroke-miterlimit="10" stroke-linejoin="round"/>
<path id="Vector_9" d="M22.754 47.1664C24.7551 47.1664 26.3772 45.5443 26.3772 43.5432C26.3772 41.5422 24.7551 39.92 22.754 39.92C20.753 39.92 19.1309 41.5422 19.1309 43.5432C19.1309 45.5443 20.753 47.1664 22.754 47.1664Z" stroke="white" stroke-width="2" stroke-miterlimit="10" stroke-linejoin="round"/>
<path id="Vector_10" d="M40.1451 43.5431H38.6958" stroke="white" stroke-width="2" stroke-miterlimit="10" stroke-linejoin="round"/>
<path id="Vector_11" d="M39.4206 47.1664C41.4216 47.1664 43.0437 45.5443 43.0437 43.5432C43.0437 41.5422 41.4216 39.92 39.4206 39.92C37.4195 39.92 35.7974 41.5422 35.7974 43.5432C35.7974 45.5443 37.4195 47.1664 39.4206 47.1664Z" stroke="white" stroke-width="2" stroke-miterlimit="10" stroke-linejoin="round"/>
<path id="Vector_12" d="M43.0438 44.268H45.2177C46.0221 44.268 46.667 43.6158 46.667 42.8187V35.5723C46.667 34.7752 46.0221 34.1231 45.2177 34.1231L43.2105 23.7028C43.0801 23.0216 42.4858 22.5289 41.7902 22.5289H33.6235" stroke="white" stroke-width="2" stroke-miterlimit="10" stroke-linejoin="round"/>
<path id="Vector_13" d="M13.3335 37.7466V42.819C13.3335 43.6161 13.9857 44.2683 14.7828 44.2683H19.1306" stroke="white" stroke-width="2" stroke-miterlimit="10" stroke-linejoin="round"/>
<path id="Vector_14" d="M25.6523 44.2681H35.7973" stroke="white" stroke-width="2" stroke-miterlimit="10" stroke-linejoin="round"/>
<path id="Vector_15" d="M45.2176 34.1231H39.4205C38.6161 34.1231 37.9712 33.4709 37.9712 32.6738V22.5289" stroke="white" stroke-width="2" stroke-miterlimit="10" stroke-linejoin="round"/>
</g>
</g>
</svg>
