<svg width="60" height="61" viewBox="0 0 60 61" fill="none" xmlns="http://www.w3.org/2000/svg">
<g id="Group 36">
<rect id="Rectangle 41" y="0.5" width="60" height="60" fill="#E9E9E9"/>
<g id="Group">
<path id="Vector" d="M41.5947 21.8041H18.4062V39.1954H41.5947V21.8041Z" stroke="#7A7A7A" stroke-width="2" stroke-miterlimit="10" stroke-linejoin="round"/>
<path id="Vector_2" d="M27.1016 44.268H17.6813C15.2828 44.268 13.3335 42.3188 13.3335 39.9202V21.0796C13.3335 18.6811 15.2828 16.7318 17.6813 16.7318H29.2755" stroke="#7A7A7A" stroke-width="2" stroke-miterlimit="10" stroke-linejoin="round"/>
<path id="Vector_3" d="M32.8985 16.7318H42.3188C44.7174 16.7318 46.6666 18.6811 46.6666 21.0796V39.9202C46.6666 42.3188 44.7174 44.268 42.3188 44.268H30.7246" stroke="#7A7A7A" stroke-width="2" stroke-miterlimit="10" stroke-linejoin="round"/>
<path id="Vector_4" d="M34.348 29.0505L30.0002 26.8765L25.6523 29.0505V21.8041H34.348V29.0505Z" stroke="#7A7A7A" stroke-width="2" stroke-miterlimit="10" stroke-linejoin="round"/>
<path id="Vector_5" d="M20.5801 36.2971H24.9279" stroke="#7A7A7A" stroke-width="2" stroke-miterlimit="10" stroke-linejoin="round"/>
<path id="Vector_6" d="M20.5801 33.3986H27.8265" stroke="#7A7A7A" stroke-width="2" stroke-miterlimit="10" stroke-linejoin="round"/>
<path id="Vector_7" d="M26.377 19.6304L29.2755 16.7319L26.377 13.8333" stroke="#7A7A7A" stroke-width="2" stroke-miterlimit="10" stroke-linejoin="round"/>
<path id="Vector_8" d="M33.6232 41.3694L30.7246 44.268L33.6232 47.1665" stroke="#7A7A7A" stroke-width="2" stroke-miterlimit="10" stroke-linejoin="round"/>
</g>
</g>
</svg>
