<svg width="42" height="42" viewBox="0 0 42 42" fill="none" xmlns="http://www.w3.org/2000/svg">
<g id="Group 25">
<circle id="Ellipse 16" cx="21" cy="21" r="20.5" stroke="#A7A7A7"/>
<g id="Group">
<g id="Group_2">
<path id="Vector" d="M26.7133 29.9858H14.2867C13.0251 29.9858 12 28.9604 12 27.7011V15.2846C12 14.0254 13.0263 13 14.2867 13H26.7133C27.9737 13 29 14.0254 29 15.2846V27.7011C29 28.9616 27.9737 29.9858 26.7133 29.9858ZM14.2867 14.3219C13.7546 14.3219 13.3231 14.7542 13.3231 15.2846V27.7011C13.3231 28.2327 13.7546 28.6639 14.2867 28.6639H26.7133C27.2454 28.6639 27.6769 28.2315 27.6769 27.7011V15.2846C27.6769 14.7542 27.2442 14.3219 26.7133 14.3219H14.2867Z" fill="#A7A7A7"/>
</g>
<g id="Group_3">
<path id="Vector_2" fill-rule="evenodd" clip-rule="evenodd" d="M25.4588 21.713C25.4588 24.411 23.2702 26.5976 20.5697 26.5976C17.8692 26.5976 15.6807 24.411 15.6807 21.713C15.6807 19.0149 17.8692 16.8271 20.5697 16.8271C23.2702 16.8283 25.4588 19.0149 25.4588 21.713Z" fill="#A7A7A7"/>
</g>
<path id="Vector_3" fill-rule="evenodd" clip-rule="evenodd" d="M26.5585 16.3506C26.5585 16.8786 26.1305 17.3074 25.6008 17.3074C25.0711 17.3074 24.6431 16.8786 24.6431 16.3506C24.6431 15.8214 25.0711 15.3926 25.6008 15.3926C26.1293 15.3926 26.5585 15.8214 26.5585 16.3506Z" fill="#A7A7A7"/>
</g>
</g>
</svg>
