<svg width="60" height="60" viewBox="0 0 60 60" fill="none" xmlns="http://www.w3.org/2000/svg">
<g id="Group 32">
<circle id="Ellipse 17" cx="30" cy="30" r="30" fill="#222222"/>
<g id="Group">
<path id="Vector" d="M19.5929 45.9575C22.2752 45.9575 24.4496 43.7831 24.4496 41.1009C24.4496 38.4186 22.2752 36.2443 19.5929 36.2443C16.9107 36.2443 14.7363 38.4186 14.7363 41.1009C14.7363 43.7831 16.9107 45.9575 19.5929 45.9575Z" stroke="white" stroke-width="2" stroke-miterlimit="10" stroke-linejoin="round"/>
<path id="Vector_2" d="M18.2053 36.2443V17.5116C18.2053 15.5967 16.6512 14.0426 14.7363 14.0426H14.0425" stroke="white" stroke-width="2" stroke-miterlimit="10" stroke-linejoin="round"/>
<path id="Vector_3" d="M24.4497 42.4885H46.6514L44.57 45.9575" stroke="white" stroke-width="2" stroke-miterlimit="10" stroke-linejoin="round"/>
<path id="Vector_4" d="M18.8989 41.1007H20.2865" stroke="white" stroke-width="2" stroke-miterlimit="10" stroke-linejoin="round"/>
<path id="Vector_5" d="M34.1629 20.2869H24.4497V27.2249L29.3063 25.1435L34.1629 27.2249V20.2869Z" stroke="white" stroke-width="2" stroke-miterlimit="10" stroke-linejoin="round"/>
<path id="Vector_6" d="M24.0821 42.4885H40.4072V20.2869H18.2056V36.612" stroke="white" stroke-width="2" stroke-miterlimit="10" stroke-linejoin="round"/>
<path id="Vector_7" d="M30.6938 39.7131H35.5505" stroke="white" stroke-width="2" stroke-miterlimit="10" stroke-linejoin="round"/>
<path id="Vector_8" d="M30.6938 36.938H38.3257" stroke="white" stroke-width="2" stroke-miterlimit="10" stroke-linejoin="round"/>
</g>
</g>
</svg>
