<svg width="63" height="60" viewBox="0 0 63 60" fill="none" xmlns="http://www.w3.org/2000/svg">
<g id="Group 1">
<path id="Vector" d="M5.58178 38.0506L11.4245 15.7217C11.6059 15.0321 12.2707 14.6092 12.9154 14.7754L22.7272 17.3375L22.7222 17.3425L20.0627 27.5002C19.9267 28.0137 20.3801 28.4919 20.8988 28.3912L23.5281 27.7116C23.8504 27.5556 24.2332 27.6563 24.4398 27.9482L26.4192 29.8408C26.8222 30.1831 27.4467 29.9818 27.5827 29.4684L30.2422 19.3056L40.0489 21.8677C40.6937 22.0388 41.0714 22.7335 40.8901 23.418L35.0474 45.752C34.866 46.4365 34.1961 46.8594 33.5514 46.6933L6.4179 39.6009C5.77822 39.4298 5.40046 38.7402 5.58178 38.0506Z" fill="white"/>
<path id="Vector_2" d="M1.64342 46.4263L32.9122 54.6008L42.1699 48.7418L52.566 9.02686L61.0077 4.08893C62.0554 3.47483 62.408 2.13088 61.7935 1.0839C61.184 0.0419479 59.8392 -0.310401 58.7915 0.298661L49.559 5.69968C49.0251 6.01679 48.6725 6.52014 48.5365 7.07887C48.5365 7.09397 48.5264 7.10405 48.5264 7.11915L37.8433 47.9313L37.0072 51.1327L34.0253 50.3525L2.75153 42.183C1.57795 41.876 0.379169 42.5756 0.0719223 43.7484C-0.235329 44.9213 0.46983 46.1193 1.64342 46.4263Z" fill="white"/>
<path id="Vector_3" d="M33.0729 52.3712C33.2694 51.6212 33.5967 50.9467 34.0249 50.3528C34.9365 49.0843 36.3116 48.2185 37.8428 47.9316C38.6991 47.7705 39.6057 47.7907 40.5023 48.0273C41.1067 48.1833 41.6658 48.43 42.1695 48.7421C44.3857 50.1112 45.5492 52.8041 44.8541 55.4518C44.0029 58.7035 40.6735 60.6515 37.4197 59.8008C34.9164 59.1464 33.1888 57.0223 32.9117 54.6011C32.8311 53.8763 32.8765 53.1212 33.0729 52.3712ZM38.3817 56.1313C39.6107 56.4535 40.8649 55.7186 41.1822 54.4954C41.3182 53.9719 41.2628 53.4434 41.0614 52.9853C40.7894 52.3662 40.2454 51.878 39.5453 51.6917C38.3163 51.3746 37.0621 52.1095 36.7397 53.3327C36.4829 54.3343 36.9211 55.3562 37.7622 55.8696C37.9486 55.9853 38.1601 56.076 38.3817 56.1313Z" fill="white"/>
</g>
</svg>
