<svg width="60" height="61" viewBox="0 0 60 61" fill="none" xmlns="http://www.w3.org/2000/svg">
<g id="Group 34">
<rect id="Rectangle 41" y="0.5" width="60" height="60" fill="#E9E9E9"/>
<g id="Group">
<path id="Vector" d="M22.8116 43.5433H21.3623" stroke="#7A7A7A" stroke-width="2" stroke-miterlimit="10" stroke-linejoin="round"/>
<path id="Vector_2" d="M22.0866 47.1665C24.0876 47.1665 25.7098 45.5444 25.7098 43.5433C25.7098 41.5423 24.0876 39.9201 22.0866 39.9201C20.0855 39.9201 18.4634 41.5423 18.4634 43.5433C18.4634 45.5444 20.0855 47.1665 22.0866 47.1665Z" stroke="#7A7A7A" stroke-width="2" stroke-miterlimit="10" stroke-linejoin="round"/>
<path id="Vector_3" d="M40.2027 43.5433H38.7534" stroke="#7A7A7A" stroke-width="2" stroke-miterlimit="10" stroke-linejoin="round"/>
<path id="Vector_4" d="M30.058 13.8333H20.6377" stroke="#7A7A7A" stroke-width="2" stroke-miterlimit="10" stroke-linejoin="round"/>
<path id="Vector_5" d="M39.4782 47.1665C41.4792 47.1665 43.1014 45.5444 43.1014 43.5433C43.1014 41.5423 41.4792 39.9201 39.4782 39.9201C37.4771 39.9201 35.855 41.5423 35.855 43.5433C35.855 45.5444 37.4771 47.1665 39.4782 47.1665Z" stroke="#7A7A7A" stroke-width="2" stroke-miterlimit="10" stroke-linejoin="round"/>
<path id="Vector_6" d="M43.101 44.2679H45.2749C46.0793 44.2679 46.7242 43.6157 46.7242 42.8186V35.5723C46.7242 34.7752 46.0793 34.123 45.2749 34.123L43.2677 23.7027C43.1372 23.0215 42.5358 22.5288 41.8474 22.5288H33.6807C32.8764 22.5288 32.2314 23.181 32.2314 23.9781V44.2679H35.8546" stroke="#7A7A7A" stroke-width="2" stroke-miterlimit="10" stroke-linejoin="round"/>
<path id="Vector_7" d="M12.6665 44.2679H18.4636" stroke="#7A7A7A" stroke-width="2" stroke-miterlimit="10" stroke-linejoin="round"/>
<path id="Vector_8" d="M25.7098 44.268H32.2315V19.6303C32.2315 18.8332 31.5793 18.181 30.7822 18.181H18.4634" stroke="#7A7A7A" stroke-width="2" stroke-miterlimit="10" stroke-linejoin="round"/>
<path id="Vector_9" d="M45.2752 34.123H39.4781C38.6737 34.123 38.0288 33.4708 38.0288 32.6737V22.5288" stroke="#7A7A7A" stroke-width="2" stroke-miterlimit="10" stroke-linejoin="round"/>
<path id="Vector_10" d="M24.2606 36.2971H14.8403" stroke="#7A7A7A" stroke-width="2" stroke-miterlimit="10" stroke-linejoin="round"/>
<path id="Vector_11" d="M21.3622 31.9493H12.6665" stroke="#7A7A7A" stroke-width="2" stroke-miterlimit="10" stroke-linejoin="round"/>
<path id="Vector_12" d="M15.565 26.877H14.1157" stroke="#7A7A7A" stroke-width="2" stroke-miterlimit="10" stroke-linejoin="round"/>
<path id="Vector_13" d="M27.1591 26.877H17.0142" stroke="#7A7A7A" stroke-width="2" stroke-miterlimit="10" stroke-linejoin="round"/>
<path id="Vector_14" d="M23.5361 23.2534H12.6665" stroke="#7A7A7A" stroke-width="2" stroke-miterlimit="10" stroke-linejoin="round"/>
<path id="Vector_15" d="M17.0142 18.181H15.5649" stroke="#7A7A7A" stroke-width="2" stroke-miterlimit="10" stroke-linejoin="round"/>
</g>
</g>
</svg>
