<svg width="20" height="15" viewBox="0 0 20 15" fill="none" xmlns="http://www.w3.org/2000/svg">
<g id="Frame 149">
<g id="_x31_4_1_">
<path id="Vector" d="M7.826 5.51514L7.73639 6.00587C7.54971 7.16669 6.53165 8.03606 5.35429 8.03606C5.35429 8.03606 5.35429 8.03606 5.3518 8.03606H4.90873C4.38103 8.03606 3.91557 8.37732 3.75378 8.88051C3.44512 9.84454 2.93485 11.4463 2.54405 12.6719C2.27522 13.5138 2.90249 14.3707 3.78364 14.3707H16.2169C17.098 14.3707 17.7253 13.5113 17.4565 12.6719L16.2468 8.883C16.085 8.37982 15.6195 8.03854 15.0918 8.03854H14.6487C13.4714 8.03854 12.4533 7.16668 12.2666 6.00836L12.177 5.51762" stroke="white" stroke-miterlimit="10" stroke-linecap="square"/>
<path id="Vector_2" d="M13.0332 4.16703C13.5584 4.28909 13.6132 4.41862 13.6132 4.41862L13.882 5.90328C13.9368 6.28441 14.2628 6.56589 14.6487 6.56589H17.1478C17.5112 6.56589 17.8198 6.29437 17.8671 5.93317L17.9916 4.96665C18.0015 4.88445 18.004 4.79726 17.9916 4.71506C17.5734 2.13684 13.7078 1.27246 10.0014 1.27246C6.39717 1.27246 2.34735 2.10695 2.00634 4.73C1.99638 4.80473 1.99887 4.87947 2.00883 4.9542L2.13578 5.93566C2.18307 6.29686 2.48923 6.56838 2.85513 6.56838H5.35423C5.74005 6.56838 6.06612 6.28689 6.12088 5.90577L6.38971 4.42112C6.38971 4.42112 6.61373 3.94533 10.0014 3.94533C11.2112 3.94533 12.0176 4.00512 12.5528 4.08234C12.747 4.10725 12.9038 4.13714 13.0332 4.16703Z" stroke="white" stroke-miterlimit="10" stroke-linecap="square"/>
<path id="Vector_3" d="M10.0015 11.8593C10.9445 11.8593 11.709 11.0943 11.709 10.1505C11.709 9.20672 10.9445 8.44165 10.0015 8.44165C9.05844 8.44165 8.29395 9.20672 8.29395 10.1505C8.29395 11.0943 9.05844 11.8593 10.0015 11.8593Z" stroke="white" stroke-miterlimit="10" stroke-linecap="square"/>
</g>
</g>
</svg>
