<svg width="60" height="61" viewBox="0 0 60 61" fill="none" xmlns="http://www.w3.org/2000/svg">
<g id="Group 33">
<rect id="Rectangle 41" y="0.5" width="60" height="60" fill="#E9E9E9"/>
<g id="Group">
<path id="Vector" d="M14.7827 39.9201H22.0291" stroke="#7A7A7A" stroke-width="2" stroke-miterlimit="10" stroke-linejoin="round"/>
<path id="Vector_2" d="M19.8555 43.5432H27.1018" stroke="#7A7A7A" stroke-width="2" stroke-miterlimit="10" stroke-linejoin="round"/>
<path id="Vector_3" d="M16.2324 47.1664H24.9281" stroke="#7A7A7A" stroke-width="2" stroke-miterlimit="10" stroke-linejoin="round"/>
<path id="Vector_4" d="M34.3478 40.6448C34.3478 40.6448 34.2319 45.2173 30.7246 47.1665" stroke="#7A7A7A" stroke-width="2" stroke-miterlimit="10" stroke-linejoin="round"/>
<path id="Vector_5" d="M41.5947 40.6448C41.5947 40.6448 41.7107 45.2173 45.2179 47.1665" stroke="#7A7A7A" stroke-width="2" stroke-miterlimit="10" stroke-linejoin="round"/>
<path id="Vector_6" d="M46.6667 31.1664C46.6667 36.7679 42.7754 42.0939 37.971 42.0939C33.1667 42.0939 29.2754 36.7751 29.2754 31.1664C29.2754 25.565 33.1667 21.8041 37.971 21.8041C42.7754 21.8041 46.6667 25.565 46.6667 31.1664Z" stroke="#7A7A7A" stroke-width="2" stroke-miterlimit="10" stroke-linejoin="round"/>
<path id="Vector_7" d="M46.6671 28.3261C46.6671 28.3261 41.783 29.6595 37.9714 28.3261C36.1381 27.6812 33.754 27.4783 32.1743 27.6015" stroke="#7A7A7A" stroke-width="2" stroke-miterlimit="10" stroke-linejoin="round"/>
<path id="Vector_8" d="M28.5509 36.2971H13.3335V13.8333H37.9712V20.3551" stroke="#7A7A7A" stroke-width="2" stroke-miterlimit="10" stroke-linejoin="round"/>
<path id="Vector_9" d="M24.2034 27.6016H16.957V32.6741H24.2034V27.6016Z" stroke="#7A7A7A" stroke-width="2" stroke-miterlimit="10" stroke-linejoin="round"/>
<path id="Vector_10" d="M30.0003 21.0797L25.6525 18.9057L21.3047 21.0797V13.8333H30.0003V21.0797Z" stroke="#7A7A7A" stroke-width="2" stroke-miterlimit="10" stroke-linejoin="round"/>
</g>
</g>
</svg>
