<svg width="100" height="17" viewBox="0 0 100 17" fill="none" xmlns="http://www.w3.org/2000/svg">
<g id="Rating">
<path id="Star 1" d="M29.0959 0L30.9351 5.66059H36.887L32.0718 9.15903L33.9111 14.8196L29.0959 11.3212L24.2807 14.8196L26.1199 9.15903L21.3048 5.66059H27.2567L29.0959 0Z" fill="#FFC952"/>
<path id="Star 2" d="M8.19209 0L10.0313 5.66059H15.9832L11.168 9.15903L13.0073 14.8196L8.19209 11.3212L3.3769 14.8196L5.21614 9.15903L0.400949 5.66059H6.35285L8.19209 0Z" fill="#FFC952"/>
<path id="Star 3" d="M91.8078 0L93.6471 5.66059H99.599L94.7838 9.15903L96.623 14.8196L91.8078 11.3212L86.9926 14.8196L88.8319 9.15903L84.0167 5.66059H89.9686L91.8078 0Z" fill="#FFC952"/>
<path id="Star 4" d="M70.904 0L72.7432 5.66059H78.6951L73.88 9.15903L75.7192 14.8196L70.904 11.3212L66.0888 14.8196L67.9281 9.15903L63.1129 5.66059H69.0648L70.904 0Z" fill="#FFC952"/>
<path id="Star 5" d="M49.9997 0L51.8389 5.66059H57.7908L52.9757 9.15903L54.8149 14.8196L49.9997 11.3212L45.1845 14.8196L47.0238 9.15903L42.2086 5.66059H48.1605L49.9997 0Z" fill="#FFC952"/>
</g>
</svg>
