<svg width="33" height="32" viewBox="0 0 33 32" fill="none" xmlns="http://www.w3.org/2000/svg">
<g id="Frame 53">
<g id="Group">
<path id="Vector" d="M8.95721 27.5331H7.66357" stroke="#7A7A7A" stroke-width="2" stroke-miterlimit="10" stroke-linejoin="round"/>
<path id="Vector_2" d="M8.31076 30.7369C10.0969 30.7369 11.5449 29.3025 11.5449 27.5332C11.5449 25.7639 10.0969 24.3295 8.31076 24.3295C6.52462 24.3295 5.07666 25.7639 5.07666 27.5332C5.07666 29.3025 6.52462 30.7369 8.31076 30.7369Z" stroke="#7A7A7A" stroke-width="2" stroke-miterlimit="10" stroke-linejoin="round"/>
<path id="Vector_3" d="M25.7746 27.5331H24.481" stroke="#7A7A7A" stroke-width="2" stroke-miterlimit="10" stroke-linejoin="round"/>
<path id="Vector_4" d="M10.8977 1.26318H7.66357" stroke="#7A7A7A" stroke-width="2" stroke-miterlimit="10" stroke-linejoin="round"/>
<path id="Vector_5" d="M12.1915 7.02966H8.31055" stroke="#7A7A7A" stroke-width="2" stroke-miterlimit="10" stroke-linejoin="round"/>
<path id="Vector_6" d="M16.0725 15.3595H12.8384" stroke="#7A7A7A" stroke-width="2" stroke-miterlimit="10" stroke-linejoin="round"/>
<path id="Vector_7" d="M7.66379 15.3595H4.42969" stroke="#7A7A7A" stroke-width="2" stroke-miterlimit="10" stroke-linejoin="round"/>
<path id="Vector_8" d="M21.2469 1.26318H12.1914" stroke="#7A7A7A" stroke-width="2" stroke-miterlimit="10" stroke-linejoin="round"/>
<path id="Vector_9" d="M29.6555 4.4668H18.0127" stroke="#7A7A7A" stroke-width="2" stroke-miterlimit="10" stroke-linejoin="round"/>
<path id="Vector_10" d="M25.1277 30.7369C26.9138 30.7369 28.3618 29.3025 28.3618 27.5332C28.3618 25.7639 26.9138 24.3295 25.1277 24.3295C23.3415 24.3295 21.8936 25.7639 21.8936 27.5332C21.8936 29.3025 23.3415 30.7369 25.1277 30.7369Z" stroke="#7A7A7A" stroke-width="2" stroke-miterlimit="10" stroke-linejoin="round"/>
<path id="Vector_11" d="M28.362 28.1738H30.3024C31.0204 28.1738 31.5961 27.5971 31.5961 26.8923V21.1257C31.5961 20.0621 30.7293 19.2035 29.6556 19.2035H28.362L26.5703 9.98977C26.4539 9.38748 25.9235 8.95178 25.3025 8.95178H19.9533C19.2353 8.95178 18.6597 9.52844 18.6597 10.2333V28.1738H21.8938" stroke="#7A7A7A" stroke-width="2" stroke-miterlimit="10" stroke-linejoin="round"/>
<path id="Vector_12" d="M11.5446 28.174H18.6596V21.1259H1.84229V26.8925C1.84229 27.5973 2.42442 28.174 3.13593 28.174H5.07639" stroke="#7A7A7A" stroke-width="2" stroke-miterlimit="10" stroke-linejoin="round"/>
<path id="Vector_13" d="M28.3619 19.2035H23.8342C23.1162 19.2035 22.5405 18.6269 22.5405 17.9221V8.95178" stroke="#7A7A7A" stroke-width="2" stroke-miterlimit="10" stroke-linejoin="round"/>
<path id="Vector_14" d="M18.6596 12.7966H10.251V21.1261H18.6596V12.7966Z" stroke="#7A7A7A" stroke-width="2" stroke-miterlimit="10" stroke-linejoin="round"/>
<path id="Vector_15" d="M14.7786 4.4668H5.72314V12.7963H14.7786V4.4668Z" stroke="#7A7A7A" stroke-width="2" stroke-miterlimit="10" stroke-linejoin="round"/>
<path id="Vector_16" d="M10.2509 12.7966H1.84229V21.1261H10.2509V12.7966Z" stroke="#7A7A7A" stroke-width="2" stroke-miterlimit="10" stroke-linejoin="round"/>
</g>
</g>
</svg>
