<svg width="32" height="32" viewBox="0 0 32 32" fill="none" xmlns="http://www.w3.org/2000/svg">
<g id="Frame 51">
<g id="Group">
<path id="Vector" d="M29.6754 30.7369H2.76465V8.31124L16.22 1.26318L29.6754 8.31124V30.7369Z" stroke="#FF5E41" stroke-width="2" stroke-miterlimit="10" stroke-linejoin="round"/>
<path id="Vector_2" d="M25.8309 12.7963H6.60889V30.7368H25.8309V12.7963Z" stroke="#FF5E41" stroke-width="2" stroke-miterlimit="10" stroke-linejoin="round"/>
<path id="Vector_3" d="M19.4234 24.3295H13.0161V30.7368H19.4234V24.3295Z" stroke="#FF5E41" stroke-width="2" stroke-miterlimit="10" stroke-linejoin="round"/>
<path id="Vector_4" d="M19.4237 30.7368H25.8311V24.3295H19.4237V30.7368Z" stroke="#FF5E41" stroke-width="2" stroke-miterlimit="10" stroke-linejoin="round"/>
<path id="Vector_5" d="M6.60879 30.7368H13.0161V24.3295H6.60879L6.60879 30.7368Z" stroke="#FF5E41" stroke-width="2" stroke-miterlimit="10" stroke-linejoin="round"/>
<path id="Vector_6" d="M19.4234 17.9222H13.0161V24.3296H19.4234V17.9222Z" stroke="#FF5E41" stroke-width="2" stroke-miterlimit="10" stroke-linejoin="round"/>
<path id="Vector_7" d="M6.60879 24.3295H13.0161V17.9221H6.60879L6.60879 24.3295Z" stroke="#FF5E41" stroke-width="2" stroke-miterlimit="10" stroke-linejoin="round"/>
<path id="Vector_8" d="M0.842285 30.7368H31.5974" stroke="#FF5E41" stroke-width="2" stroke-miterlimit="10" stroke-linejoin="round"/>
<path id="Vector_9" d="M5.96826 9.59277H8.53119" stroke="#FF5E41" stroke-width="2" stroke-miterlimit="10" stroke-linejoin="round"/>
<path id="Vector_10" d="M10.4531 9.59277H13.0161" stroke="#FF5E41" stroke-width="2" stroke-miterlimit="10" stroke-linejoin="round"/>
<path id="Vector_11" d="M14.9385 9.59277H17.5014" stroke="#FF5E41" stroke-width="2" stroke-miterlimit="10" stroke-linejoin="round"/>
<path id="Vector_12" d="M19.4233 9.59277H21.9863" stroke="#FF5E41" stroke-width="2" stroke-miterlimit="10" stroke-linejoin="round"/>
<path id="Vector_13" d="M23.9087 9.59277H26.4716" stroke="#FF5E41" stroke-width="2" stroke-miterlimit="10" stroke-linejoin="round"/>
</g>
</g>
</svg>
