<svg width="60" height="60" viewBox="0 0 60 60" fill="none" xmlns="http://www.w3.org/2000/svg">
<g id="Group 39">
<circle id="Ellipse 17" cx="30" cy="30" r="30" fill="#222222"/>
<g id="Group 38">
<path id="Vector" d="M25.0303 48.3956C17.2037 46.1115 11.4893 38.8825 11.4893 30.319C11.4893 19.9217 19.9217 11.4893 30.319 11.4893" stroke="white" stroke-width="2" stroke-miterlimit="10" stroke-linejoin="round"/>
<path id="Vector_2" d="M35.6081 12.2424C43.4347 14.5266 49.1491 21.7556 49.1491 30.319C49.1491 40.7163 40.7167 49.1488 30.3193 49.1488" stroke="white" stroke-width="2" stroke-miterlimit="10" stroke-linejoin="round"/>
<path id="Vector_3" d="M22.9505 44.2368L25.4066 49.1489H19.6758" stroke="white" stroke-width="2" stroke-miterlimit="10" stroke-linejoin="round"/>
<path id="Vector_4" d="M37.687 16.4014L35.231 11.4893H40.9618" stroke="white" stroke-width="2" stroke-miterlimit="10" stroke-linejoin="round"/>
<path id="Vector_5" d="M30.3187 43.4179C37.5531 43.4179 43.4177 37.5533 43.4177 30.319C43.4177 23.0846 37.5531 17.22 30.3187 17.22C23.0843 17.22 17.2197 23.0846 17.2197 30.319C17.2197 37.5533 23.0843 43.4179 30.3187 43.4179Z" stroke="white" stroke-width="2" stroke-miterlimit="10" stroke-linejoin="round"/>
<path id="Vector_6" d="M30.319 43.4179C33.9362 43.4179 36.8685 37.5533 36.8685 30.319C36.8685 23.0846 33.9362 17.22 30.319 17.22C26.7018 17.22 23.7695 23.0846 23.7695 30.319C23.7695 37.5533 26.7018 43.4179 30.319 43.4179Z" stroke="white" stroke-width="2" stroke-miterlimit="10" stroke-linejoin="round"/>
<path id="Vector_7" d="M17.2197 30.3193H43.4177" stroke="white" stroke-width="2" stroke-miterlimit="10" stroke-linejoin="round"/>
<path id="Vector_8" d="M18.4478 24.5881H42.1897" stroke="white" stroke-width="2" stroke-miterlimit="10" stroke-linejoin="round"/>
<path id="Vector_9" d="M18.4478 36.0498H42.1897" stroke="white" stroke-width="2" stroke-miterlimit="10" stroke-linejoin="round"/>
<path id="Vector_10" d="M30.3193 17.22V43.4179" stroke="white" stroke-width="2" stroke-miterlimit="10" stroke-linejoin="round"/>
</g>
</g>
</svg>
